# xmcd
#
# Track frame offsets:
#	150
#	12552
#	22277
#	33422
#	44055
#	54157
#	68437
#	79957
#	90100
#	101737
#	113305
#	125862
#
# Disc length: 1812 seconds
#
# Revision: 1
# Processed by: cddbd v1.4PL0 Copyright (c) Steve Scherf et al.
# Submitted via: CDmax 2.0
#
DISCID=9707120c
DTITLE=Roy Clark - The Lightning Fingers of Roy Clark
DYEAR=1999
DGENRE=Country
TTITLE0=Twelfth Street Rag
TTITLE1=Texas Twist
TTITLE2=Golden Slippers
TTITLE3=Weepin' Willow Twist
TTITLE4=Pink Velvet Swing
TTITLE5=In The Mood
TTITLE6=Drifter's Polka
TTITLE7=Wildwood Twist
TTITLE8=A Maiden's Prayer
TTITLE9=Dented Fender
TTITLE10=Over The Waves
TTITLE11=Chicken Wire
EXTD=
EXTT0=
EXTT1=
EXTT2=
EXTT3=
EXTT4=
EXTT5=
EXTT6=
EXTT7=
EXTT8=
EXTT9=
EXTT10=
EXTT11=
PLAYORDER=
